<svg xmlns="http://www.w3.org/2000/svg" width="1200" height="630" viewBox="0 0 1200 630" role="img" aria-label="Wat is een agent, wat levert het op?">
  <rect width="1200" height="630" fill="#F3ECE0"/>
  <g><circle cx="864" cy="88" r="3" fill="#2A2218" opacity="0.10"/><circle cx="910" cy="88" r="3" fill="#2A2218" opacity="0.10"/><circle cx="956" cy="88" r="3" fill="#2A2218" opacity="0.10"/><circle cx="1002" cy="88" r="3" fill="#2A2218" opacity="0.10"/><circle cx="1048" cy="88" r="3" fill="#2A2218" opacity="0.10"/><circle cx="1094" cy="88" r="3" fill="#2A2218" opacity="0.10"/><circle cx="864" cy="134" r="3" fill="#2A2218" opacity="0.10"/><circle cx="910" cy="134" r="3" fill="#2A2218" opacity="0.10"/><circle cx="956" cy="134" r="3" fill="#2A2218" opacity="0.10"/><circle cx="1002" cy="134" r="3" fill="#2A2218" opacity="0.10"/><circle cx="1048" cy="134" r="3" fill="#2A2218" opacity="0.10"/><circle cx="1094" cy="134" r="3" fill="#2A2218" opacity="0.10"/><circle cx="864" cy="180" r="3" fill="#2A2218" opacity="0.10"/><circle cx="910" cy="180" r="3" fill="#2A2218" opacity="0.10"/><circle cx="956" cy="180" r="3" fill="#2A2218" opacity="0.10"/><rect x="996" y="172" width="12" height="16" fill="#B45F38" opacity="0.9"/><circle cx="1048" cy="180" r="3" fill="#2A2218" opacity="0.10"/><circle cx="1094" cy="180" r="3" fill="#2A2218" opacity="0.10"/><circle cx="864" cy="226" r="3" fill="#2A2218" opacity="0.10"/><circle cx="910" cy="226" r="3" fill="#2A2218" opacity="0.10"/><circle cx="956" cy="226" r="3" fill="#2A2218" opacity="0.10"/><circle cx="1002" cy="226" r="3" fill="#2A2218" opacity="0.10"/><circle cx="1048" cy="226" r="3" fill="#2A2218" opacity="0.10"/><circle cx="1094" cy="226" r="3" fill="#2A2218" opacity="0.10"/></g>
  <rect x="28" y="28" width="1144" height="574" fill="none" stroke="#E4D8C6" stroke-width="2" rx="2"/>
  <rect x="76" y="92" width="16" height="16" fill="#B45F38"/>
  <text x="106" y="106" font-family="'Courier New', monospace" font-size="23" letter-spacing="4" fill="#B45F38">AI-AGENT</text>
  <rect x="76" y="126" width="132" height="3" fill="#B45F38"/>
  <text x="76" y="336" font-family="'Helvetica Neue', Arial, sans-serif" font-weight="700" font-size="74" fill="#2A2218">Wat is een agent,</text><text x="76" y="422" font-family="'Helvetica Neue', Arial, sans-serif" font-weight="700" font-size="74" fill="#2A2218">wat levert het op?</text>
  <text x="76" y="556" font-family="'Courier New', monospace" font-size="20" letter-spacing="1" fill="#2A2218" opacity="0.55">Think now, build tomorrow.</text>
  <rect x="362" y="542" width="13" height="18" fill="#B45F38"/>
</svg>
